<?xml version="1.0" encoding="iso-8859-1"?>
<!-- Generator: Adobe Illustrator 16.0.0, SVG Export Plug-In . SVG Version: 6.00 Build 0)  -->
<!DOCTYPE svg PUBLIC "-//W3C//DTD SVG 1.1//EN" "http://www.w3.org/Graphics/SVG/1.1/DTD/svg11.dtd">
<svg version="1.1" id="Capa_1" xmlns="http://www.w3.org/2000/svg" xmlns:xlink="http://www.w3.org/1999/xlink" x="0px" y="0px"
	 width="240.51px" height="240.51px" viewBox="0 0 240.51 240.51" style="enable-background:new 0 0 240.51 240.51;"
	 xml:space="preserve">
<g>
	<g>
		<path d="M46.707,179.431l-7.213,7.197c-2.174,2.185-2.196,5.743,0,7.936c2.192,2.191,5.744,2.191,7.938,0l11.89-11.875
			c5.001,0.834,10.299,1.347,16.063,1.347h89.777c5.75,0,11.057-0.513,16.086-1.347l11.865,11.875c2.192,2.191,5.719,2.191,7.943,0
			c2.18-2.192,2.18-5.751,0-7.936l-7.206-7.197c23.091-8.447,35.233-28.488,35.233-59.294H11.483
			C11.483,150.95,23.604,170.983,46.707,179.431z"/>
		<path d="M234.904,103.548H5.611c-3.1,0-5.611,2.502-5.611,5.612c0,3.108,2.511,5.603,5.611,5.603h229.284
			c3.098,0,5.615-2.502,5.615-5.603C240.51,106.051,237.993,103.548,234.904,103.548z"/>
		<path d="M214.265,88.49l-13.545,2.661c-1.611,0-2.93,1.311-2.93,2.93c0,1.617,1.318,2.927,2.93,2.927h19.42
			c0.429,0,0.85-0.094,1.25-0.283c0.169-0.076,0.213-0.284,0.353-0.385c0.321-0.22,0.506-0.463,0.726-0.793
			c0.192-0.329,0.341-0.613,0.425-0.996c0.028-0.172,0.177-0.291,0.177-0.487c0-0.143-0.177-0.403-0.249-0.583
			c-0.044-0.218,0.072-0.451-0.027-0.667l-18.968-40.018c-2.155-4.925-8.235-8.494-15.48-8.494c-9.021,0-16.374,5.558-16.374,12.419
			h27.254L214.265,88.49z"/>
		<path d="M179.961,60.356c-0.677-0.411-1.583-0.207-2.012,0.495l-5.105,8.406c-0.444,0.689-0.212,1.587,0.478,2.008
			c0.228,0.15,0.505,0.214,0.773,0.214c0.484,0,0.966-0.252,1.242-0.697l5.113-8.417C180.887,61.683,180.651,60.777,179.961,60.356z
			"/>
		<path d="M181.769,71.487c0.485,0,0.966-0.252,1.242-0.697l5.122-8.417c0.429-0.689,0.2-1.587-0.493-2.008
			c-0.689-0.411-1.591-0.208-2.008,0.493l-5.122,8.407c-0.412,0.689-0.191,1.587,0.485,2.008
			C181.256,71.415,181.508,71.487,181.769,71.487z"/>
		<path d="M189.452,71.487c0.488,0,0.965-0.252,1.242-0.697l5.105-8.417c0.429-0.689,0.208-1.587-0.485-2.008
			c-0.689-0.411-1.595-0.208-2.008,0.493l-5.121,8.407c-0.429,0.689-0.204,1.587,0.484,2.008
			C188.93,71.415,189.174,71.487,189.452,71.487z"/>
	</g>
</g>
<g>
</g>
<g>
</g>
<g>
</g>
<g>
</g>
<g>
</g>
<g>
</g>
<g>
</g>
<g>
</g>
<g>
</g>
<g>
</g>
<g>
</g>
<g>
</g>
<g>
</g>
<g>
</g>
<g>
</g>
</svg>
