<?xml version="1.0" encoding="iso-8859-1"?>
<!-- Generator: Adobe Illustrator 16.0.0, SVG Export Plug-In . SVG Version: 6.00 Build 0)  -->
<!DOCTYPE svg PUBLIC "-//W3C//DTD SVG 1.1//EN" "http://www.w3.org/Graphics/SVG/1.1/DTD/svg11.dtd">
<svg version="1.1" id="Capa_1" xmlns="http://www.w3.org/2000/svg" xmlns:xlink="http://www.w3.org/1999/xlink" x="0px" y="0px"
	 width="45.484px" height="45.484px" viewBox="0 0 45.484 45.484" style="enable-background:new 0 0 45.484 45.484;"
	 xml:space="preserve">
<g>
	<path d="M44.812,39.272c-0.422-0.372-0.986-0.545-1.545-0.475c-2.084,0.263-5.375,0.565-8.666,0.417
		c-2.252-0.104-4.297-0.548-6.231-1.16l-6.915-19.796c6.59-2.123,12.113-2.978,15.205-3.316c0.645-0.071,1.209-0.453,1.515-1.023
		s0.31-1.254,0.011-1.828C33.973,3.978,24.688-0.293,15.732,1.881l-0.166-0.475c-0.172-0.491-0.531-0.894-0.998-1.119
		C14.1,0.062,13.562,0.031,13.07,0.203l-0.032,0.011c-1.021,0.357-1.56,1.474-1.203,2.496L12,3.183
		C3.659,7.044-0.946,16.123,0.764,25.07c0.123,0.642,0.557,1.18,1.156,1.436c0.601,0.256,1.289,0.197,1.836-0.159
		c2.469-1.605,7.044-4.215,13.965-6.789l5.814,16.648c-4.698-1.991-9.192-4.075-15.127-3.17c-3.793,0.578-6.785,3.564-7.916,4.849
		C0.179,38.244,0,38.703,0,39.179v4.253c0,1.082,0.886,1.959,1.968,1.959h41.548c1.082,0,1.969-0.877,1.969-1.959v-2.691
		C45.482,40.179,45.234,39.644,44.812,39.272z"/>
</g>
<g>
</g>
<g>
</g>
<g>
</g>
<g>
</g>
<g>
</g>
<g>
</g>
<g>
</g>
<g>
</g>
<g>
</g>
<g>
</g>
<g>
</g>
<g>
</g>
<g>
</g>
<g>
</g>
<g>
</g>
</svg>
